<svg width="48" height="48" viewBox="0 0 48 48" fill="none" xmlns="http://www.w3.org/2000/svg">
<path d="M24 42C16.5005 42 12.7508 42 10.1221 40.0902C9.2732 39.4734 8.52662 38.7268 7.90982 37.8778C6 35.2492 6 31.4994 6 24C6 16.5005 6 12.7508 7.90982 10.1221C8.52662 9.2732 9.2732 8.52662 10.1221 7.90982C12.7508 6 16.5005 6 24 6C31.4994 6 35.2492 6 37.8778 7.90982C38.7268 8.52662 39.4734 9.2732 40.0902 10.1221C42 12.7508 42 16.5005 42 24C42 31.4994 42 35.2492 40.0902 37.8778C39.4734 38.7268 38.7268 39.4734 37.8778 40.0902C35.2492 42 31.4994 42 24 42Z" fill="#181818" stroke="#181818" stroke-linecap="round" stroke-linejoin="round"/>
<path d="M10.123 39.0121C12.4379 34.4719 18.5551 30.9219 24.0009 30.9219C29.4047 30.9219 35.5449 34.5291 37.8787 39.0121M28.6675 19.8107C28.6675 22.5109 26.4787 24.6997 23.7787 24.6997C21.0787 24.6997 18.8898 22.5109 18.8898 19.8107C18.8898 17.1107 21.0787 14.9219 23.7787 14.9219C26.4787 14.9219 28.6675 17.1107 28.6675 19.8107Z" fill="#FCFCFC"/>
<path d="M10.123 39.0121C12.4379 34.4719 18.5551 30.9219 24.0009 30.9219C29.4047 30.9219 35.5449 34.5291 37.8787 39.0121C35.2501 40.9219 31.5003 40.9219 24.0009 40.9219C16.5014 40.9219 12.7517 40.9219 10.123 39.0121Z" fill="#FCFCFC"/>
<path d="M10.123 39.0121C12.4379 34.4719 18.5551 30.9219 24.0009 30.9219C29.4047 30.9219 35.5449 34.5291 37.8787 39.0121C35.2501 40.9219 31.5003 40.9219 24.0009 40.9219C16.5014 40.9219 12.7517 40.9219 10.123 39.0121ZM28.6675 19.8107C28.6675 22.5109 26.4787 24.6997 23.7787 24.6997C21.0787 24.6997 18.8898 22.5109 18.8898 19.8107C18.8898 17.1107 21.0787 14.9219 23.7787 14.9219C26.4787 14.9219 28.6675 17.1107 28.6675 19.8107Z" stroke="#FCFCFC" stroke-linecap="round" stroke-linejoin="round"/>
</svg>
