<svg width="25" height="24" viewBox="0 0 25 24" fill="none" xmlns="http://www.w3.org/2000/svg">
<path d="M17.75 3.5L15.25 7.25C14.75 6.9842 13.75 6.49995 12.5 6.49995C9.5 6.49995 7 8.99995 7 11.75C7 14.5 9 17.5003 12.5 17.5003C15.3 17.5003 17.25 15.5002 17.25 14.0002H12.5V10.5001C16 10.5001 22.5 10.5 22.5 10.5C22.75 14.2501 21.6448 16.4502 20.25 18.25C18.1621 20.944 15.0856 22.0001 12.5 22.0001C7.5 22.0001 2.5 18.0003 2.5 11.75C2.5 5.75 7.86185 2 12 2C16.1382 2 17.75 3.5 17.75 3.5Z" fill="#FCFCFC"/>
<path d="M14.9843 7.68179L14.5576 8.48452C14.9701 8.70379 15.4816 8.57474 15.7407 8.18606L14.9843 7.68179ZM17.257 4.27272L18.0134 4.77699C18.2607 4.40617 18.2026 3.91082 17.8764 3.60722L17.257 4.27272ZM21.5752 10.6363L22.4823 10.5758C22.4504 10.0983 22.0538 9.72719 21.5752 9.72719L21.5752 10.6363ZM12.4843 10.6364V9.72733C12.2432 9.72733 12.012 9.8231 11.8415 9.9936C11.671 10.1641 11.5752 10.3953 11.5752 10.6364H12.4843ZM12.4843 13.8184H11.5752C11.5752 14.3204 11.9822 14.7274 12.4843 14.7274V13.8184ZM16.8025 13.8184H17.7116C17.7116 13.3163 17.3046 12.9093 16.8025 12.9093V13.8184ZM15.7407 8.18606L18.0134 4.77699L16.5006 3.76845L14.2279 7.17752L15.7407 8.18606ZM17.257 4.27272C17.8764 3.60722 17.8759 3.60682 17.8755 3.60643C17.8754 3.60629 17.8749 3.60588 17.8746 3.60561C17.874 3.60505 17.8734 3.60447 17.8727 3.60387C17.8714 3.60267 17.87 3.6014 17.8685 3.60004C17.8656 3.59732 17.8622 3.59428 17.8584 3.59093C17.851 3.58423 17.8419 3.5763 17.8313 3.56721C17.8101 3.54902 17.7826 3.52623 17.7487 3.49953C17.6808 3.44611 17.5869 3.37709 17.4657 3.29804C17.2229 3.13979 16.8709 2.94209 16.3972 2.74903C15.4472 2.36192 14.0235 2 12.0298 2V3.81817C13.7981 3.81817 14.9879 4.13807 15.7111 4.43277C16.0739 4.58062 16.3235 4.72383 16.4729 4.82126C16.5478 4.87005 16.5979 4.90756 16.6248 4.92872C16.6382 4.9393 16.6459 4.94581 16.648 4.9476C16.649 4.9485 16.6487 4.94821 16.647 4.94668C16.6461 4.94591 16.6449 4.94483 16.6434 4.94342C16.6426 4.94272 16.6417 4.94193 16.6408 4.94106C16.6403 4.94063 16.6399 4.94018 16.6393 4.9397C16.6391 4.93946 16.6387 4.9391 16.6385 4.93898C16.6381 4.9386 16.6377 4.93822 17.257 4.27272ZM12.0298 2C9.89639 2 7.52517 2.9552 5.68966 4.62252C3.83786 6.30462 2.48438 8.75515 2.48438 11.7726H4.30255C4.30255 9.33569 5.38626 7.35443 6.91217 5.96835C8.4543 4.56751 10.4012 3.81817 12.0298 3.81817V2ZM2.48438 11.7726C2.48438 18.0002 7.48131 22 12.4843 22V20.1818C8.39648 20.1818 4.30255 16.9093 4.30255 11.7726H2.48438ZM21.5752 10.6363C21.5752 9.72719 21.5752 9.72719 21.5752 9.72719C21.5751 9.72719 21.5752 9.72719 21.5752 9.72719C21.575 9.72719 21.5745 9.72719 21.5741 9.72719C21.5734 9.72719 21.5723 9.72719 21.5709 9.72719C21.568 9.72719 21.5637 9.72719 21.5581 9.72719C21.5468 9.72719 21.5301 9.72719 21.508 9.72719C21.464 9.72719 21.3989 9.72719 21.3151 9.72719C21.1472 9.72724 20.904 9.72724 20.6022 9.72724C19.9985 9.72724 19.1604 9.72728 18.2229 9.72728C16.3479 9.72733 14.0752 9.72737 12.4843 9.72733V11.5455C14.0752 11.5455 16.3479 11.5455 18.2229 11.5455C19.1604 11.5455 19.9985 11.5454 20.6022 11.5454C20.9041 11.5454 21.1473 11.5454 21.3151 11.5454C21.399 11.5454 21.464 11.5454 21.5081 11.5454C21.5301 11.5454 21.5469 11.5454 21.5582 11.5454C21.5638 11.5454 21.5681 11.5454 21.5709 11.5454C21.5723 11.5454 21.5734 11.5454 21.5742 11.5454C21.5745 11.5454 21.5748 11.5454 21.575 11.5454C21.5749 11.5454 21.5751 11.5454 21.575 11.5454C21.575 11.5454 21.5752 11.5454 21.5752 10.6363ZM11.5752 10.6364V13.8184H13.3934V10.6364H11.5752ZM12.4843 14.7274H16.8025V12.9093H12.4843V14.7274ZM15.8934 13.8184C15.8934 14.1352 15.6563 14.6965 15.0211 15.218C14.4153 15.7153 13.5377 16.0911 12.4843 16.0911V17.9093C13.9764 17.9093 15.2579 17.376 16.1748 16.6233C17.0623 15.8947 17.7116 14.8651 17.7116 13.8184H15.8934ZM12.4843 16.0911C9.93107 16.0911 8.39344 13.9072 8.39344 11.7726H6.57527C6.57527 14.6381 8.67398 17.9093 12.4843 17.9093V16.0911ZM8.39344 11.7726C8.39344 9.80174 10.2317 7.90902 12.4843 7.90902V6.09085C9.28244 6.09085 6.57527 8.74361 6.57527 11.7726H8.39344ZM12.4843 7.90902C13.3936 7.90902 14.1413 8.26315 14.5576 8.48452L15.411 6.87907C14.9183 6.61712 13.8478 6.09085 12.4843 6.09085V7.90902ZM12.4843 22C15.0627 22 18.1479 20.9489 20.2483 18.2386L18.8112 17.1249C17.1155 19.3129 14.607 20.1818 12.4843 20.1818V22ZM20.2483 18.2386C21.6288 16.4573 22.7267 14.2429 22.4823 10.5758L20.6681 10.6968C20.8782 13.8481 19.9668 15.6338 18.8112 17.1249L20.2483 18.2386Z" fill="#8C8C8C"/>
</svg>
