<svg width="16" height="16" viewBox="0 0 16 16" fill="none" xmlns="http://www.w3.org/2000/svg">
<g clip-path="url(#clip0_280_11566)">
<path d="M1.3335 1.33203L14.6668 14.6654" stroke="#181818" stroke-linecap="round" stroke-linejoin="round"/>
<path d="M4.47534 4.48043C2.44336 5.86221 1.3335 7.9987 1.3335 7.9987C1.3335 7.9987 3.75774 12.6654 8.00016 12.6654C9.36703 12.6654 10.5451 12.181 11.5142 11.5243M7.3335 3.37084C7.55043 3.34545 7.7727 3.33203 8.00016 3.33203C12.2426 3.33203 14.6668 7.9987 14.6668 7.9987C14.6668 7.9987 14.2056 8.8865 13.3335 9.8877" stroke="#181818" stroke-linecap="round" stroke-linejoin="round"/>
<path d="M9.33333 9.48852C8.97947 9.80519 8.51227 9.99779 8 9.99779C6.8954 9.99779 6 9.10239 6 7.99779C6 7.44866 6.22129 6.95126 6.57955 6.58984" stroke="#181818" stroke-linecap="round" stroke-linejoin="round"/>
</g>
<defs>
<clipPath id="clip0_280_11566">
<rect width="16" height="16" fill="white"/>
</clipPath>
</defs>
</svg>
