<svg width="120" height="152" viewBox="0 0 120 152" fill="none" xmlns="http://www.w3.org/2000/svg">
<path d="M113.674 72.3574H6.32589C4.64874 72.3593 3.04083 73.0264 1.8549 74.2123C0.668975 75.3982 0.00189183 77.0062 0 78.6833V145.518C0.00190683 147.195 0.668988 148.803 1.85491 149.989C3.04083 151.175 4.64874 151.842 6.32589 151.844H113.674C115.351 151.842 116.959 151.175 118.145 149.989C119.331 148.803 119.998 147.195 120 145.518V78.6833C119.998 77.0062 119.331 75.3982 118.145 74.2123C116.959 73.0264 115.351 72.3593 113.674 72.3574Z" fill="#DCDCDC"/>
<path d="M113.674 72.3574H6.32589C4.64874 72.3593 3.04083 73.0264 1.8549 74.2123C0.668975 75.3982 0.00189183 77.0062 0 78.6833V145.518C0.00190683 147.195 0.668988 148.803 1.85491 149.989C3.04083 151.175 4.64874 151.842 6.32589 151.844H113.674C115.351 151.842 116.959 151.175 118.145 149.989C119.331 148.803 119.998 147.195 120 145.518V78.6833C119.998 77.0062 119.331 75.3982 118.145 74.2123C116.959 73.0264 115.351 72.3593 113.674 72.3574ZM115.75 120.365C115.724 127.17 113.033 133.693 108.253 138.535C103.473 143.378 96.9861 146.154 90.1829 146.269C79.2905 146.411 96.2096 146.466 83.0725 146.466C53.0324 146.466 21.7088 146.179 10.0216 145.993C8.48394 145.961 7.01958 145.329 5.9412 144.233C4.86282 143.136 4.25586 141.661 4.24992 140.123V78.6883C4.25053 78.1375 4.46923 77.6094 4.85819 77.2195C5.24715 76.8296 5.77471 76.6096 6.32546 76.6076H113.67C114.22 76.6082 114.748 76.8269 115.138 77.2158C115.528 77.6046 115.748 78.1321 115.75 78.6827V120.365Z" fill="#818181"/>
<path d="M100.46 33.8716H18.6719C17.9482 33.8726 17.2425 34.097 16.6511 34.514C16.0597 34.931 15.6114 35.5204 15.3675 36.2017L2.73589 71.6404C2.54736 72.1694 2.48858 72.7358 2.56447 73.2922C2.64037 73.8486 2.84871 74.3787 3.17201 74.8378C3.49531 75.297 3.92411 75.6718 4.42236 75.9308C4.92062 76.1898 5.47377 76.3254 6.03533 76.3262L115.727 76.5209H115.731C116.312 76.5209 116.883 76.3768 117.394 76.1016C117.906 75.8264 118.34 75.4286 118.66 74.944C118.979 74.4594 119.174 73.903 119.225 73.3248C119.277 72.7466 119.184 72.1646 118.956 71.6311L103.684 35.9977C103.414 35.3664 102.965 34.8283 102.391 34.4503C101.818 34.0723 101.147 33.871 100.46 33.8716Z" fill="#818181"/>
<path d="M119.239 72.4008C119.239 72.8759 119.142 73.3461 118.955 73.783L103.685 101.212C103.413 101.842 102.962 102.379 102.389 102.757C101.816 103.134 101.146 103.335 100.459 103.336H18.6726C17.9486 103.336 17.2426 103.112 16.6507 102.695C16.0588 102.278 15.61 101.689 15.3654 101.007L2.73616 73.7735C2.58135 73.3396 2.51358 72.8795 2.53671 72.4194C2.55984 71.9593 2.67341 71.5083 2.87094 71.0921C3.06848 70.676 3.34609 70.3028 3.68792 69.994C4.02975 69.6852 4.42909 69.4468 4.86311 69.2924C5.23857 69.1568 5.63471 69.0874 6.03389 69.0872L19.4331 69.062L24.9019 69.0525L96.865 68.9263L102.337 68.9169L115.727 68.8916H115.73C116.661 68.8918 117.553 69.2615 118.211 69.9196C118.869 70.5776 119.239 71.4701 119.239 72.4008Z" fill="white"/>
<path d="M14.3731 122.491C15.9949 122.491 38.2663 123.852 38.2663 125.474C38.2663 127.096 15.9949 128.364 14.3731 128.364C13.5942 128.364 12.8473 128.055 12.2966 127.504C11.7458 126.953 11.4365 126.206 11.4365 125.427C11.4365 124.648 11.7458 123.902 12.2966 123.351C12.8473 122.8 13.5942 122.491 14.3731 122.491Z" fill="#818181"/>
<path d="M95.3648 12.3125H26.4028C24.5546 12.3146 22.7828 13.0498 21.4759 14.3566C20.1691 15.6635 19.434 17.4353 19.4318 19.2835V103.336H100.458C101.123 103.338 101.775 103.149 102.336 102.79V19.2835C102.334 17.4353 101.599 15.6635 100.292 14.3566C98.9848 13.0498 97.213 12.3146 95.3648 12.3125Z" fill="#E6E6E6"/>
<path d="M69.0446 17.9648H31.2517C29.5688 17.9665 27.9552 18.6355 26.7649 19.8252C25.5747 21.0149 24.9048 22.6281 24.9023 24.311V103.337H96.8654V45.7857C96.8569 38.4098 93.9231 31.3384 88.7075 26.1228C83.4919 20.9072 76.4205 17.9734 69.0446 17.9648Z" fill="white"/>
<path d="M84.6049 96.3179H37.1617C36.7516 96.3179 36.3583 96.4808 36.0683 96.7708C35.7783 97.0608 35.6154 97.4541 35.6154 97.8642C35.6154 98.2743 35.7783 98.6676 36.0683 98.9576C36.3583 99.2476 36.7516 99.4105 37.1617 99.4105H84.6049C85.015 99.4105 85.4083 99.2476 85.6982 98.9576C85.9882 98.6676 86.1511 98.2743 86.1511 97.8642C86.1511 97.4541 85.9882 97.0608 85.6982 96.7708C85.4083 96.4808 85.015 96.3179 84.6049 96.3179Z" fill="#E4E4E4"/>
<path d="M84.6053 90.2021H37.1622C36.7517 90.2021 36.358 90.3652 36.0677 90.6555C35.7774 90.9458 35.6143 91.3395 35.6143 91.75C35.6143 92.1606 35.7774 92.5543 36.0677 92.8445C36.358 93.1348 36.7517 93.2979 37.1622 93.2979H84.6053C85.0159 93.2979 85.4096 93.1348 85.6998 92.8445C85.9901 92.5543 86.1532 92.1606 86.1532 91.75C86.1532 91.3395 85.9901 90.9458 85.6998 90.6555C85.4096 90.3652 85.0159 90.2021 84.6053 90.2021Z" fill="#E4E4E4"/>
<path d="M57.7276 84.0894H37.1617C36.7516 84.0894 36.3583 84.2523 36.0683 84.5423C35.7783 84.8322 35.6154 85.2256 35.6154 85.6357C35.6154 86.0458 35.7783 86.4391 36.0683 86.7291C36.3583 87.019 36.7516 87.182 37.1617 87.182H57.7276C58.1377 87.182 58.531 87.019 58.821 86.7291C59.1109 86.4391 59.2739 86.0458 59.2739 85.6357C59.2739 85.2256 59.1109 84.8322 58.821 84.5423C58.531 84.2523 58.1377 84.0894 57.7276 84.0894Z" fill="#E4E4E4"/>
<path d="M84.6053 71.2837H37.1622C36.7517 71.2837 36.358 71.4468 36.0677 71.7371C35.7774 72.0273 35.6143 72.421 35.6143 72.8316C35.6143 73.2421 35.7774 73.6358 36.0677 73.9261C36.358 74.2164 36.7517 74.3795 37.1622 74.3795H84.6053C85.0159 74.3795 85.4096 74.2164 85.6998 73.9261C85.9901 73.6358 86.1532 73.2421 86.1532 72.8316C86.1532 72.421 85.9901 72.0273 85.6998 71.7371C85.4096 71.4468 85.0159 71.2837 84.6053 71.2837Z" fill="#E4E4E4"/>
<path d="M84.6049 65.1709H37.1617C36.7516 65.1709 36.3583 65.3338 36.0683 65.6238C35.7783 65.9138 35.6154 66.3071 35.6154 66.7172C35.6154 67.1273 35.7783 67.5206 36.0683 67.8106C36.3583 68.1006 36.7516 68.2635 37.1617 68.2635H84.6049C85.015 68.2635 85.4083 68.1006 85.6982 67.8106C85.9882 67.5206 86.1511 67.1273 86.1511 66.7172C86.1511 66.3071 85.9882 65.9138 85.6982 65.6238C85.4083 65.3338 85.015 65.1709 84.6049 65.1709Z" fill="#E4E4E4"/>
<path d="M57.728 59.0552H37.1622C36.7517 59.0552 36.358 59.2183 36.0677 59.5085C35.7774 59.7988 35.6143 60.1925 35.6143 60.6031C35.6143 61.0136 35.7774 61.4073 36.0677 61.6976C36.358 61.9879 36.7517 62.1509 37.1622 62.1509H57.728C58.1386 62.1509 58.5323 61.9879 58.8226 61.6976C59.1128 61.4073 59.2759 61.0136 59.2759 60.6031C59.2759 60.1925 59.1128 59.7988 58.8226 59.5085C58.5323 59.2183 58.1386 59.0552 57.728 59.0552Z" fill="#E4E4E4"/>
<path d="M84.6053 46.2495H37.1622C36.7517 46.2495 36.358 46.4126 36.0677 46.7029C35.7774 46.9932 35.6143 47.3869 35.6143 47.7974C35.6143 48.2079 35.7774 48.6016 36.0677 48.8919C36.358 49.1822 36.7517 49.3453 37.1622 49.3453H84.6053C85.0159 49.3453 85.4096 49.1822 85.6998 48.8919C85.9901 48.6016 86.1532 48.2079 86.1532 47.7974C86.1532 47.3869 85.9901 46.9932 85.6998 46.7029C85.4096 46.4126 85.0159 46.2495 84.6053 46.2495Z" fill="#4A4A4A"/>
<path d="M84.6053 40.1367H37.1622C36.7517 40.1367 36.358 40.2998 36.0677 40.5901C35.7774 40.8804 35.6143 41.2741 35.6143 41.6846C35.6143 42.0951 35.7774 42.4888 36.0677 42.7791C36.358 43.0694 36.7517 43.2325 37.1622 43.2325H84.6053C85.0159 43.2325 85.4096 43.0694 85.6998 42.7791C85.9901 42.4888 86.1532 42.0951 86.1532 41.6846C86.1532 41.2741 85.9901 40.8804 85.6998 40.5901C85.4096 40.2998 85.0159 40.1367 84.6053 40.1367Z" fill="#4A4A4A"/>
<path d="M57.728 34.021H37.1622C36.7517 34.021 36.358 34.1841 36.0677 34.4744C35.7774 34.7646 35.6143 35.1584 35.6143 35.5689C35.6143 35.9794 35.7774 36.3731 36.0677 36.6634C36.358 36.9537 36.7517 37.1168 37.1622 37.1168H57.728C58.1386 37.1168 58.5323 36.9537 58.8226 36.6634C59.1128 36.3731 59.2759 35.9794 59.2759 35.5689C59.2759 35.1584 59.1128 34.7646 58.8226 34.4744C58.5323 34.1841 58.1386 34.021 57.728 34.021Z" fill="#4A4A4A"/>
<path d="M99.7505 24.243C106.402 24.243 111.794 18.8511 111.794 12.1999C111.794 5.54863 106.402 0.156738 99.7505 0.156738C93.0993 0.156738 87.7074 5.54863 87.7074 12.1999C87.7074 18.8511 93.0993 24.243 99.7505 24.243Z" fill="#4A4A4A"/>
<path d="M98.1088 18.4676C97.9009 18.4676 97.6957 18.4192 97.5097 18.3262C97.3237 18.2331 97.162 18.0981 97.0372 17.9317L93.7517 13.5509C93.6456 13.4102 93.5682 13.2499 93.5242 13.0793C93.4801 12.9087 93.4701 12.731 93.4948 12.5565C93.5195 12.382 93.5783 12.2141 93.668 12.0624C93.7577 11.9107 93.8765 11.7782 94.0174 11.6725C94.1584 11.5668 94.3189 11.4899 94.4896 11.4463C94.6604 11.4027 94.8381 11.3932 95.0125 11.4183C95.1869 11.4435 95.3547 11.5028 95.5061 11.5929C95.6576 11.683 95.7897 11.8021 95.8951 11.9434L98.0446 14.8092L103.565 6.52819C103.762 6.23256 104.069 6.02734 104.417 5.95766C104.766 5.88798 105.128 5.95956 105.423 6.15664C105.719 6.35373 105.924 6.66018 105.994 7.00857C106.063 7.35697 105.992 7.71878 105.795 8.01441L99.2236 17.8711C99.1047 18.0493 98.9448 18.1965 98.7574 18.3002C98.5699 18.4039 98.3603 18.4612 98.1461 18.4672C98.1337 18.4674 98.1213 18.4676 98.1088 18.4676Z" fill="white"/>
</svg>
