<svg width="120" height="152" viewBox="0 0 120 152" fill="none" xmlns="http://www.w3.org/2000/svg">
<path d="M113.674 66.0449H6.32589C4.64874 66.0468 3.04083 66.7139 1.8549 67.8998C0.668975 69.0857 0.00189183 70.6937 0 72.3708V139.205C0.00190683 140.882 0.668988 142.49 1.85491 143.676C3.04083 144.862 4.64874 145.529 6.32589 145.531H113.674C115.351 145.529 116.959 144.862 118.145 143.676C119.331 142.49 119.998 140.882 120 139.205V72.3708C119.998 70.6937 119.331 69.0857 118.145 67.8998C116.959 66.7139 115.351 66.0468 113.674 66.0449Z" fill="#DCDCDC"/>
<path d="M113.674 66.0449H6.32589C4.64874 66.0468 3.04083 66.7139 1.8549 67.8998C0.668975 69.0857 0.00189183 70.6937 0 72.3708V139.205C0.00190683 140.882 0.668988 142.49 1.85491 143.676C3.04083 144.862 4.64874 145.529 6.32589 145.531H113.674C115.351 145.529 116.959 144.862 118.145 143.676C119.331 142.49 119.998 140.882 120 139.205V72.3708C119.998 70.6937 119.331 69.0857 118.145 67.8998C116.959 66.7139 115.351 66.0468 113.674 66.0449ZM115.75 114.053C115.724 120.857 113.033 127.38 108.253 132.223C103.473 137.065 96.9861 139.842 90.1829 139.956C79.2905 140.098 96.2096 140.153 83.0725 140.153C53.0324 140.153 21.7088 139.866 10.0216 139.68C8.48394 139.648 7.01958 139.017 5.9412 137.92C4.86282 136.824 4.25586 135.349 4.24992 133.811V72.3758C4.25053 71.825 4.46923 71.2969 4.85819 70.907C5.24715 70.5171 5.77471 70.2971 6.32546 70.2951H113.67C114.22 70.2957 114.748 70.5144 115.138 70.9033C115.528 71.2921 115.748 71.8196 115.75 72.3702V114.053Z" fill="#818181"/>
<path d="M100.46 27.5591H18.6718C17.9481 27.5601 17.2425 27.7845 16.6511 28.2015C16.0597 28.6185 15.6114 29.2079 15.3674 29.8892L2.73583 65.3279C2.5473 65.8569 2.48852 66.4233 2.56441 66.9797C2.6403 67.5361 2.84865 68.0662 3.17195 68.5253C3.49525 68.9845 3.92404 69.3593 4.4223 69.6183C4.92055 69.8773 5.47371 70.0129 6.03526 70.0137L115.726 70.2084H115.731C116.312 70.2084 116.883 70.0643 117.394 69.7891C117.905 69.5139 118.34 69.1161 118.66 68.6315C118.979 68.1469 119.174 67.5905 119.225 67.0123C119.277 66.4341 119.184 65.8521 118.956 65.3186L103.684 29.6852C103.414 29.0539 102.965 28.5158 102.391 28.1378C101.818 27.7598 101.146 27.5585 100.46 27.5591Z" fill="#818181"/>
<path d="M119.239 66.0883C119.239 66.5634 119.142 67.0336 118.955 67.4705L103.684 94.9C103.413 95.53 102.962 96.0667 102.389 96.444C101.816 96.8214 101.145 97.0229 100.459 97.0238H18.6725C17.9486 97.0231 17.2425 96.799 16.6507 96.3823C16.0588 95.9655 15.6099 95.3762 15.3653 94.6949L2.7361 67.461C2.58129 67.0271 2.51352 66.567 2.53665 66.1069C2.55978 65.6468 2.67335 65.1958 2.87088 64.7796C3.06842 64.3635 3.34603 63.9903 3.68786 63.6815C4.02969 63.3727 4.42903 63.1343 4.86305 62.9799C5.23851 62.8443 5.63465 62.7749 6.03383 62.7747L19.433 62.7495L24.9019 62.74L96.865 62.6138L102.337 62.6044L115.727 62.5791H115.73C116.661 62.5793 117.553 62.949 118.211 63.6071C118.869 64.2651 119.239 65.1576 119.239 66.0883Z" fill="white"/>
<path d="M14.3731 116.178C15.9949 116.178 38.2663 117.539 38.2663 119.161C38.2663 120.783 15.9949 122.051 14.3731 122.051C13.5943 122.051 12.8473 121.742 12.2966 121.191C11.7459 120.641 11.4365 119.894 11.4365 119.115C11.4365 118.336 11.7459 117.589 12.2966 117.038C12.8473 116.488 13.5943 116.178 14.3731 116.178Z" fill="#818181"/>
<path d="M95.3646 6H26.4026C24.5545 6.00214 22.7826 6.73726 21.4758 8.04411C20.1689 9.35096 19.4338 11.1228 19.4316 12.971V97.0236H100.458C101.123 97.0257 101.775 96.8362 102.336 96.4777V12.971C102.333 11.1228 101.598 9.35097 100.291 8.04412C98.9846 6.73727 97.2128 6.00214 95.3646 6Z" fill="#E6E6E6"/>
<path d="M69.0446 11.6523H31.2517C29.5688 11.654 27.9552 12.323 26.7649 13.5127C25.5747 14.7024 24.9048 16.3156 24.9023 17.9985V97.0241H96.8654V39.4732C96.8569 32.0973 93.9231 25.0259 88.7075 19.8103C83.4919 14.5947 76.4205 11.6609 69.0446 11.6523Z" fill="white"/>
<path d="M84.6047 90.0054H37.1615C36.7514 90.0054 36.3581 90.1683 36.0681 90.4583C35.7781 90.7483 35.6152 91.1416 35.6152 91.5517C35.6152 91.9618 35.7781 92.3551 36.0681 92.6451C36.3581 92.9351 36.7514 93.098 37.1615 93.098H84.6047C85.0148 93.098 85.4081 92.9351 85.6981 92.6451C85.988 92.3551 86.151 91.9618 86.151 91.5517C86.151 91.1416 85.988 90.7483 85.6981 90.4583C85.4081 90.1683 85.0148 90.0054 84.6047 90.0054Z" fill="#E4E4E4"/>
<path d="M84.6053 83.8896H37.1621C36.7516 83.8896 36.3579 84.0527 36.0676 84.343C35.7773 84.6333 35.6143 85.027 35.6143 85.4375C35.6143 85.8481 35.7773 86.2418 36.0676 86.532C36.3579 86.8223 36.7516 86.9854 37.1621 86.9854H84.6053C85.0158 86.9854 85.4095 86.8223 85.6998 86.532C85.9901 86.2418 86.1531 85.8481 86.1531 85.4375C86.1531 85.027 85.9901 84.6333 85.6998 84.343C85.4095 84.0527 85.0158 83.8896 84.6053 83.8896Z" fill="#E4E4E4"/>
<path d="M57.7274 77.7769H37.1615C36.7514 77.7769 36.3581 77.9398 36.0681 78.2298C35.7781 78.5197 35.6152 78.9131 35.6152 79.3232C35.6152 79.7333 35.7781 80.1266 36.0681 80.4166C36.3581 80.7065 36.7514 80.8695 37.1615 80.8695H57.7274C58.1375 80.8695 58.5308 80.7065 58.8208 80.4166C59.1108 80.1266 59.2737 79.7333 59.2737 79.3232C59.2737 78.9131 59.1108 78.5197 58.8208 78.2298C58.5308 77.9398 58.1375 77.7769 57.7274 77.7769Z" fill="#E4E4E4"/>
<path d="M84.6053 64.9712H37.1621C36.7516 64.9712 36.3579 65.1343 36.0676 65.4246C35.7773 65.7148 35.6143 66.1085 35.6143 66.5191C35.6143 66.9296 35.7773 67.3233 36.0676 67.6136C36.3579 67.9039 36.7516 68.067 37.1621 68.067H84.6053C85.0158 68.067 85.4095 67.9039 85.6998 67.6136C85.9901 67.3233 86.1531 66.9296 86.1531 66.5191C86.1531 66.1085 85.9901 65.7148 85.6998 65.4246C85.4095 65.1343 85.0158 64.9712 84.6053 64.9712Z" fill="#E4E4E4"/>
<path d="M84.6047 58.8584H37.1615C36.7514 58.8584 36.3581 59.0213 36.0681 59.3113C35.7781 59.6013 35.6152 59.9946 35.6152 60.4047C35.6152 60.8148 35.7781 61.2081 36.0681 61.4981C36.3581 61.7881 36.7514 61.951 37.1615 61.951H84.6047C85.0148 61.951 85.4081 61.7881 85.6981 61.4981C85.988 61.2081 86.151 60.8148 86.151 60.4047C86.151 59.9946 85.988 59.6013 85.6981 59.3113C85.4081 59.0213 85.0148 58.8584 84.6047 58.8584Z" fill="#E4E4E4"/>
<path d="M57.728 52.7427H37.1621C36.7516 52.7427 36.3579 52.9058 36.0676 53.196C35.7773 53.4863 35.6143 53.88 35.6143 54.2906C35.6143 54.7011 35.7773 55.0948 36.0676 55.3851C36.3579 55.6754 36.7516 55.8384 37.1621 55.8384H57.728C58.1385 55.8384 58.5322 55.6754 58.8225 55.3851C59.1128 55.0948 59.2759 54.7011 59.2759 54.2906C59.2759 53.88 59.1128 53.4863 58.8225 53.196C58.5322 52.9058 58.1385 52.7427 57.728 52.7427Z" fill="#E4E4E4"/>
<path d="M84.6053 39.937H37.1621C36.7516 39.937 36.3579 40.1001 36.0676 40.3904C35.7773 40.6807 35.6143 41.0744 35.6143 41.4849C35.6143 41.8954 35.7773 42.2891 36.0676 42.5794C36.3579 42.8697 36.7516 43.0328 37.1621 43.0328H84.6053C85.0158 43.0328 85.4095 42.8697 85.6998 42.5794C85.9901 42.2891 86.1531 41.8954 86.1531 41.4849C86.1531 41.0744 85.9901 40.6807 85.6998 40.3904C85.4095 40.1001 85.0158 39.937 84.6053 39.937Z" fill="#4A4A4A"/>
<path d="M84.6053 33.8242H37.1621C36.7516 33.8242 36.3579 33.9873 36.0676 34.2776C35.7773 34.5679 35.6143 34.9616 35.6143 35.3721C35.6143 35.7826 35.7773 36.1763 36.0676 36.4666C36.3579 36.7569 36.7516 36.92 37.1621 36.92H84.6053C85.0158 36.92 85.4095 36.7569 85.6998 36.4666C85.9901 36.1763 86.1531 35.7826 86.1531 35.3721C86.1531 34.9616 85.9901 34.5679 85.6998 34.2776C85.4095 33.9873 85.0158 33.8242 84.6053 33.8242Z" fill="#4A4A4A"/>
<path d="M57.728 27.7085H37.1621C36.7516 27.7085 36.3579 27.8716 36.0676 28.1619C35.7773 28.4521 35.6143 28.8459 35.6143 29.2564C35.6143 29.6669 35.7773 30.0606 36.0676 30.3509C36.3579 30.6412 36.7516 30.8043 37.1621 30.8043H57.728C58.1385 30.8043 58.5322 30.6412 58.8225 30.3509C59.1128 30.0606 59.2759 29.6669 59.2759 29.2564C59.2759 28.8459 59.1128 28.4521 58.8225 28.1619C58.5322 27.8716 58.1385 27.7085 57.728 27.7085Z" fill="#4A4A4A"/>
</svg>
