<svg width="24" height="24" viewBox="0 0 24 24" fill="none" xmlns="http://www.w3.org/2000/svg">
<path d="M2.89389 4C1.62946 4 0.587891 5.08408 0.587891 6.40012V17.6007C0.587891 18.9167 1.62946 20.0008 2.89389 20.0008H21.3419C22.6063 20.0008 23.6479 18.9167 23.6479 17.6007V6.40012C23.6479 5.08408 22.6063 4 21.3419 4H2.89389ZM3.21217 5.60008H21.0221L14.1762 12.7145C13.0287 13.9069 11.1931 13.9068 10.0461 12.7129L3.21217 5.60008ZM22.1106 6.72983V17.271L17.0392 12.0004L22.1106 6.72983ZM2.12522 6.73139L7.18761 12.0004L2.12522 17.2694V6.73139ZM15.9522 13.1302L21.0236 18.4007H3.21217L8.27456 13.1317L8.95915 13.8443C10.6931 15.649 13.5266 15.6504 15.2616 13.8474L15.9522 13.1302Z" fill="#FCFCFC"/>
</svg>
