<svg width="24" height="24" viewBox="0 0 24 24" fill="none" xmlns="http://www.w3.org/2000/svg">
<path fill-rule="evenodd" clip-rule="evenodd" d="M16.9099 3.74143C17.1597 3.57959 17.4517 3.45645 17.7508 3.38608C18.0217 3.32627 18.6304 3.34738 18.8978 3.42478C19.5381 3.61829 20.101 4.08975 20.386 4.67379C20.7801 5.48301 20.7343 6.345 20.2523 7.08737C20.1679 7.21755 19.3692 8.04788 18.0815 9.33559C16.9627 10.4615 16.0479 11.3938 16.0479 11.4149C16.0479 11.4325 16.1675 11.5662 16.3118 11.7105C16.6531 12.0482 16.734 12.2206 16.7305 12.6252C16.7305 12.8821 16.7164 12.9524 16.632 13.1284C16.4385 13.5189 16.0444 13.7581 15.587 13.7546C15.2739 13.7546 15.0206 13.6385 14.7426 13.3746L14.5315 13.1741L7.51595 20.1791L6.72432 20.4993C4.57814 21.3648 4.46203 21.4 4.0328 21.3261C3.08636 21.1642 2.4601 20.2319 2.69583 19.3312C2.72397 19.2186 2.98785 18.529 3.28339 17.8007L3.81466 16.4778L10.823 9.45897L10.6226 9.25819C10.3904 9.01542 10.2814 8.81136 10.2427 8.551C10.1758 8.0514 10.4186 7.59049 10.8654 7.3618C11.0448 7.27033 11.1047 7.25977 11.3861 7.25977C11.6606 7.25977 11.7274 7.27384 11.8787 7.35477C11.9772 7.40402 12.1637 7.55883 12.3009 7.69604C12.4346 7.83326 12.5612 7.94585 12.5788 7.94585C12.5999 7.94585 13.5323 7.03108 14.6582 5.91225C15.9564 4.6175 16.7762 3.82587 16.9099 3.74143ZM6.75199 19.0572L13.9404 11.8688L12.1248 10.0532L8.38678 13.7951L4.92919 17.2527L4.53572 18.2422C4.43842 18.4881 4.34995 18.716 4.28664 18.8839C4.2552 18.9673 4.22875 19.0391 4.21016 19.0924C4.20121 19.118 4.19205 19.1451 4.18485 19.1691C4.18171 19.1795 4.17582 19.1996 4.17082 19.2229C4.16867 19.2328 4.16336 19.2583 4.16064 19.2906C4.15933 19.3061 4.15727 19.3378 4.16076 19.3776C4.163 19.4031 4.17217 19.5058 4.24303 19.6121L4.2985 19.6953L4.38171 19.7507C4.48801 19.8216 4.59064 19.8308 4.61617 19.833C4.65595 19.8365 4.68769 19.8344 4.70324 19.8331C4.73555 19.8304 4.76101 19.8251 4.77098 19.8229C4.7942 19.8179 4.81433 19.812 4.82482 19.8089C4.84883 19.8017 4.87596 19.7925 4.90166 19.7835C4.95506 19.7648 5.02713 19.7383 5.11102 19.7066C5.27993 19.6428 5.50881 19.5537 5.75839 19.4546L5.75952 19.4541L6.75199 19.0572Z" fill="#FCFCFC"/>
</svg>
